<mxfile host="app.diagrams.net" agent="Mozilla/5.0 (Windows NT 10.0; Win64; x64) AppleWebKit/537.36 (KHTML, like Gecko) Chrome/129.0.0.0 Safari/537.36" version="24.7.17">
  <diagram name="Página-1" id="h-uZT1RbrnO0EIQRGclT">
    <mxGraphModel dx="2206" dy="1200" grid="1" gridSize="10" guides="1" tooltips="1" connect="1" arrows="1" fold="1" page="1" pageScale="1" pageWidth="827" pageHeight="1169" math="0" shadow="0">
      <root>
        <mxCell id="0" />
        <mxCell id="1" parent="0" />
        <mxCell id="kXMa__l_tiwJ-veJynp6-1" value="O objetivo:&lt;div&gt;E analisar a qualidade do produto de costura&lt;/div&gt;&lt;div&gt;e o serviço&lt;/div&gt;&lt;div&gt;&lt;br&gt;&lt;/div&gt;" style="ellipse;shape=cloud;whiteSpace=wrap;html=1;" vertex="1" parent="1">
          <mxGeometry x="170" y="20" width="360" height="260" as="geometry" />
        </mxCell>
        <mxCell id="kXMa__l_tiwJ-veJynp6-4" style="edgeStyle=orthogonalEdgeStyle;rounded=0;orthogonalLoop=1;jettySize=auto;html=1;" edge="1" parent="1" source="kXMa__l_tiwJ-veJynp6-2" target="kXMa__l_tiwJ-veJynp6-3">
          <mxGeometry relative="1" as="geometry" />
        </mxCell>
        <mxCell id="kXMa__l_tiwJ-veJynp6-2" value="Receber a avaliação de produto" style="ellipse;whiteSpace=wrap;html=1;aspect=fixed;fillColor=#d5e8d4;strokeColor=#82b366;" vertex="1" parent="1">
          <mxGeometry x="10" y="360" width="80" height="80" as="geometry" />
        </mxCell>
        <mxCell id="kXMa__l_tiwJ-veJynp6-18" value="" style="edgeStyle=orthogonalEdgeStyle;rounded=0;orthogonalLoop=1;jettySize=auto;html=1;" edge="1" parent="1" source="kXMa__l_tiwJ-veJynp6-3" target="kXMa__l_tiwJ-veJynp6-17">
          <mxGeometry relative="1" as="geometry" />
        </mxCell>
        <mxCell id="kXMa__l_tiwJ-veJynp6-3" value="Separar as informações importantes do produto" style="points=[[0.25,0,0],[0.5,0,0],[0.75,0,0],[1,0.25,0],[1,0.5,0],[1,0.75,0],[0.75,1,0],[0.5,1,0],[0.25,1,0],[0,0.75,0],[0,0.5,0],[0,0.25,0]];shape=mxgraph.bpmn.task;whiteSpace=wrap;rectStyle=rounded;size=10;html=1;container=1;expand=0;collapsible=0;taskMarker=abstract;" vertex="1" parent="1">
          <mxGeometry x="120" y="360" width="120" height="80" as="geometry" />
        </mxCell>
        <mxCell id="kXMa__l_tiwJ-veJynp6-5" value="A empresa&lt;div&gt;que Produziu&lt;/div&gt;" style="shape=mxgraph.bpmn.data;labelPosition=center;verticalLabelPosition=bottom;align=center;verticalAlign=top;size=15;html=1;" vertex="1" parent="1">
          <mxGeometry x="120" y="450" width="40" height="60" as="geometry" />
        </mxCell>
        <mxCell id="kXMa__l_tiwJ-veJynp6-6" value="A loja&lt;div&gt;que Vendeu&lt;/div&gt;" style="shape=mxgraph.bpmn.data;labelPosition=center;verticalLabelPosition=bottom;align=center;verticalAlign=top;size=15;html=1;" vertex="1" parent="1">
          <mxGeometry x="200" y="450" width="40" height="60" as="geometry" />
        </mxCell>
        <mxCell id="kXMa__l_tiwJ-veJynp6-7" value="Quando foi&lt;div&gt;realizado a compra&lt;/div&gt;" style="shape=mxgraph.bpmn.data;labelPosition=center;verticalLabelPosition=bottom;align=center;verticalAlign=top;size=15;html=1;" vertex="1" parent="1">
          <mxGeometry x="120" y="555" width="40" height="60" as="geometry" />
        </mxCell>
        <mxCell id="kXMa__l_tiwJ-veJynp6-8" value="Quem que&amp;nbsp;&lt;div&gt;comprou&lt;/div&gt;" style="shape=mxgraph.bpmn.data;labelPosition=center;verticalLabelPosition=bottom;align=center;verticalAlign=top;size=15;html=1;" vertex="1" parent="1">
          <mxGeometry x="200" y="555" width="40" height="60" as="geometry" />
        </mxCell>
        <mxCell id="kXMa__l_tiwJ-veJynp6-9" value="O material" style="shape=mxgraph.bpmn.data;labelPosition=center;verticalLabelPosition=bottom;align=center;verticalAlign=top;size=15;html=1;" vertex="1" parent="1">
          <mxGeometry x="120" y="660" width="40" height="60" as="geometry" />
        </mxCell>
        <mxCell id="kXMa__l_tiwJ-veJynp6-17" value="Armazenar a avaliação" style="points=[[0.25,0,0],[0.5,0,0],[0.75,0,0],[1,0.25,0],[1,0.5,0],[1,0.75,0],[0.75,1,0],[0.5,1,0],[0.25,1,0],[0,0.75,0],[0,0.5,0],[0,0.25,0]];shape=mxgraph.bpmn.task;whiteSpace=wrap;rectStyle=rounded;size=10;html=1;container=1;expand=0;collapsible=0;taskMarker=abstract;" vertex="1" parent="1">
          <mxGeometry x="270" y="360" width="120" height="80" as="geometry" />
        </mxCell>
        <mxCell id="kXMa__l_tiwJ-veJynp6-19" value="Banco&lt;div&gt;de Dados&lt;/div&gt;&lt;div&gt;de Avaliações&lt;/div&gt;" style="shape=datastore;html=1;labelPosition=center;verticalLabelPosition=bottom;align=center;verticalAlign=top;" vertex="1" parent="1">
          <mxGeometry x="305" y="460" width="50" height="50" as="geometry" />
        </mxCell>
        <mxCell id="kXMa__l_tiwJ-veJynp6-20" value="A avaliação&lt;div&gt;é pertinente&lt;/div&gt;&lt;div&gt;ou não?&lt;/div&gt;" style="points=[[0.25,0.25,0],[0.5,0,0],[0.75,0.25,0],[1,0.5,0],[0.75,0.75,0],[0.5,1,0],[0.25,0.75,0],[0,0.5,0]];shape=mxgraph.bpmn.gateway2;html=1;verticalLabelPosition=bottom;labelBackgroundColor=#ffffff;verticalAlign=top;align=center;perimeter=rhombusPerimeter;outlineConnect=0;outline=none;symbol=none;gwType=exclusive;" vertex="1" parent="1">
          <mxGeometry x="420" y="375" width="50" height="50" as="geometry" />
        </mxCell>
        <mxCell id="kXMa__l_tiwJ-veJynp6-21" style="edgeStyle=orthogonalEdgeStyle;rounded=0;orthogonalLoop=1;jettySize=auto;html=1;entryX=0;entryY=0.5;entryDx=0;entryDy=0;entryPerimeter=0;" edge="1" parent="1" source="kXMa__l_tiwJ-veJynp6-17" target="kXMa__l_tiwJ-veJynp6-20">
          <mxGeometry relative="1" as="geometry" />
        </mxCell>
        <mxCell id="kXMa__l_tiwJ-veJynp6-22" value="Verificar qual foi a nota que o usuário avaliou" style="points=[[0.25,0,0],[0.5,0,0],[0.75,0,0],[1,0.25,0],[1,0.5,0],[1,0.75,0],[0.75,1,0],[0.5,1,0],[0.25,1,0],[0,0.75,0],[0,0.5,0],[0,0.25,0]];shape=mxgraph.bpmn.task;whiteSpace=wrap;rectStyle=rounded;size=10;html=1;container=1;expand=0;collapsible=0;taskMarker=abstract;" vertex="1" parent="1">
          <mxGeometry x="560" y="425" width="120" height="80" as="geometry" />
        </mxCell>
        <mxCell id="kXMa__l_tiwJ-veJynp6-23" style="edgeStyle=orthogonalEdgeStyle;rounded=0;orthogonalLoop=1;jettySize=auto;html=1;entryX=0;entryY=0.5;entryDx=0;entryDy=0;entryPerimeter=0;" edge="1" parent="1" source="kXMa__l_tiwJ-veJynp6-20" target="kXMa__l_tiwJ-veJynp6-22">
          <mxGeometry relative="1" as="geometry" />
        </mxCell>
        <mxCell id="kXMa__l_tiwJ-veJynp6-26" value="Sim" style="edgeLabel;html=1;align=center;verticalAlign=middle;resizable=0;points=[];" vertex="1" connectable="0" parent="kXMa__l_tiwJ-veJynp6-23">
          <mxGeometry x="0.6222" y="1" relative="1" as="geometry">
            <mxPoint as="offset" />
          </mxGeometry>
        </mxCell>
        <mxCell id="kXMa__l_tiwJ-veJynp6-24" value="Armazenar a avaliação na tabela do usuário" style="points=[[0.25,0,0],[0.5,0,0],[0.75,0,0],[1,0.25,0],[1,0.5,0],[1,0.75,0],[0.75,1,0],[0.5,1,0],[0.25,1,0],[0,0.75,0],[0,0.5,0],[0,0.25,0]];shape=mxgraph.bpmn.task;whiteSpace=wrap;rectStyle=rounded;size=10;html=1;container=1;expand=0;collapsible=0;taskMarker=abstract;" vertex="1" parent="1">
          <mxGeometry x="560" y="295" width="120" height="80" as="geometry" />
        </mxCell>
        <mxCell id="kXMa__l_tiwJ-veJynp6-25" style="edgeStyle=orthogonalEdgeStyle;rounded=0;orthogonalLoop=1;jettySize=auto;html=1;entryX=0;entryY=0.5;entryDx=0;entryDy=0;entryPerimeter=0;" edge="1" parent="1" source="kXMa__l_tiwJ-veJynp6-20" target="kXMa__l_tiwJ-veJynp6-24">
          <mxGeometry relative="1" as="geometry" />
        </mxCell>
        <mxCell id="kXMa__l_tiwJ-veJynp6-27" value="Não" style="edgeLabel;html=1;align=center;verticalAlign=middle;resizable=0;points=[];" vertex="1" connectable="0" parent="kXMa__l_tiwJ-veJynp6-25">
          <mxGeometry x="0.7253" y="-1" relative="1" as="geometry">
            <mxPoint as="offset" />
          </mxGeometry>
        </mxCell>
        <mxCell id="kXMa__l_tiwJ-veJynp6-31" style="edgeStyle=orthogonalEdgeStyle;rounded=0;orthogonalLoop=1;jettySize=auto;html=1;entryX=0;entryY=0.5;entryDx=0;entryDy=0;entryPerimeter=0;" edge="1" parent="1" source="kXMa__l_tiwJ-veJynp6-28" target="kXMa__l_tiwJ-veJynp6-32">
          <mxGeometry relative="1" as="geometry">
            <mxPoint x="860" y="464.9999999999999" as="targetPoint" />
          </mxGeometry>
        </mxCell>
        <mxCell id="kXMa__l_tiwJ-veJynp6-28" value="Armazenar a avaliação na tabela do usuário" style="points=[[0.25,0,0],[0.5,0,0],[0.75,0,0],[1,0.25,0],[1,0.5,0],[1,0.75,0],[0.75,1,0],[0.5,1,0],[0.25,1,0],[0,0.75,0],[0,0.5,0],[0,0.25,0]];shape=mxgraph.bpmn.task;whiteSpace=wrap;rectStyle=rounded;size=10;html=1;container=1;expand=0;collapsible=0;taskMarker=abstract;" vertex="1" parent="1">
          <mxGeometry x="707" y="425" width="120" height="80" as="geometry" />
        </mxCell>
        <mxCell id="kXMa__l_tiwJ-veJynp6-29" style="edgeStyle=orthogonalEdgeStyle;rounded=0;orthogonalLoop=1;jettySize=auto;html=1;entryX=0;entryY=0.5;entryDx=0;entryDy=0;entryPerimeter=0;" edge="1" parent="1" source="kXMa__l_tiwJ-veJynp6-22" target="kXMa__l_tiwJ-veJynp6-28">
          <mxGeometry relative="1" as="geometry" />
        </mxCell>
        <mxCell id="kXMa__l_tiwJ-veJynp6-32" value="O que que&lt;div&gt;ele avaliou?&lt;/div&gt;" style="points=[[0.25,0.25,0],[0.5,0,0],[0.75,0.25,0],[1,0.5,0],[0.75,0.75,0],[0.5,1,0],[0.25,0.75,0],[0,0.5,0]];shape=mxgraph.bpmn.gateway2;html=1;verticalLabelPosition=bottom;labelBackgroundColor=#ffffff;verticalAlign=top;align=center;perimeter=rhombusPerimeter;outlineConnect=0;outline=none;symbol=none;gwType=complex;" vertex="1" parent="1">
          <mxGeometry x="860" y="440" width="50" height="50" as="geometry" />
        </mxCell>
        <mxCell id="kXMa__l_tiwJ-veJynp6-33" value="A qualidade&amp;nbsp;&lt;div&gt;do produto&lt;/div&gt;" style="points=[[0.145,0.145,0],[0.5,0,0],[0.855,0.145,0],[1,0.5,0],[0.855,0.855,0],[0.5,1,0],[0.145,0.855,0],[0,0.5,0]];shape=mxgraph.bpmn.event;html=1;verticalLabelPosition=bottom;labelBackgroundColor=#ffffff;verticalAlign=top;align=center;perimeter=ellipsePerimeter;outlineConnect=0;aspect=fixed;outline=throwing;symbol=general;" vertex="1" parent="1">
          <mxGeometry x="950" y="325" width="50" height="50" as="geometry" />
        </mxCell>
        <mxCell id="kXMa__l_tiwJ-veJynp6-34" value="A qualidade&amp;nbsp;&lt;div&gt;do serviço&lt;/div&gt;" style="points=[[0.145,0.145,0],[0.5,0,0],[0.855,0.145,0],[1,0.5,0],[0.855,0.855,0],[0.5,1,0],[0.145,0.855,0],[0,0.5,0]];shape=mxgraph.bpmn.event;html=1;verticalLabelPosition=bottom;labelBackgroundColor=#ffffff;verticalAlign=top;align=center;perimeter=ellipsePerimeter;outlineConnect=0;aspect=fixed;outline=throwing;symbol=general;" vertex="1" parent="1">
          <mxGeometry x="950" y="440" width="50" height="50" as="geometry" />
        </mxCell>
        <mxCell id="kXMa__l_tiwJ-veJynp6-35" value="O preço&lt;div&gt;do produto&lt;/div&gt;" style="points=[[0.145,0.145,0],[0.5,0,0],[0.855,0.145,0],[1,0.5,0],[0.855,0.855,0],[0.5,1,0],[0.145,0.855,0],[0,0.5,0]];shape=mxgraph.bpmn.event;html=1;verticalLabelPosition=bottom;labelBackgroundColor=#ffffff;verticalAlign=top;align=center;perimeter=ellipsePerimeter;outlineConnect=0;aspect=fixed;outline=throwing;symbol=general;" vertex="1" parent="1">
          <mxGeometry x="950" y="580" width="50" height="50" as="geometry" />
        </mxCell>
        <mxCell id="kXMa__l_tiwJ-veJynp6-38" style="edgeStyle=orthogonalEdgeStyle;rounded=0;orthogonalLoop=1;jettySize=auto;html=1;entryX=0;entryY=0.5;entryDx=0;entryDy=0;entryPerimeter=0;exitX=0.5;exitY=0;exitDx=0;exitDy=0;exitPerimeter=0;" edge="1" parent="1" source="kXMa__l_tiwJ-veJynp6-32" target="kXMa__l_tiwJ-veJynp6-33">
          <mxGeometry relative="1" as="geometry" />
        </mxCell>
        <mxCell id="kXMa__l_tiwJ-veJynp6-39" style="edgeStyle=orthogonalEdgeStyle;rounded=0;orthogonalLoop=1;jettySize=auto;html=1;entryX=0;entryY=0.5;entryDx=0;entryDy=0;entryPerimeter=0;" edge="1" parent="1" source="kXMa__l_tiwJ-veJynp6-32" target="kXMa__l_tiwJ-veJynp6-34">
          <mxGeometry relative="1" as="geometry" />
        </mxCell>
        <mxCell id="kXMa__l_tiwJ-veJynp6-40" style="edgeStyle=orthogonalEdgeStyle;rounded=0;orthogonalLoop=1;jettySize=auto;html=1;entryX=0;entryY=0.5;entryDx=0;entryDy=0;entryPerimeter=0;exitX=0.5;exitY=1;exitDx=0;exitDy=0;exitPerimeter=0;" edge="1" parent="1" source="kXMa__l_tiwJ-veJynp6-32" target="kXMa__l_tiwJ-veJynp6-35">
          <mxGeometry relative="1" as="geometry" />
        </mxCell>
        <mxCell id="kXMa__l_tiwJ-veJynp6-48" style="edgeStyle=orthogonalEdgeStyle;rounded=0;orthogonalLoop=1;jettySize=auto;html=1;" edge="1" parent="1" source="kXMa__l_tiwJ-veJynp6-41" target="kXMa__l_tiwJ-veJynp6-47">
          <mxGeometry relative="1" as="geometry" />
        </mxCell>
        <mxCell id="kXMa__l_tiwJ-veJynp6-49" value="Sim" style="edgeLabel;html=1;align=center;verticalAlign=middle;resizable=0;points=[];" vertex="1" connectable="0" parent="kXMa__l_tiwJ-veJynp6-48">
          <mxGeometry x="-0.208" relative="1" as="geometry">
            <mxPoint as="offset" />
          </mxGeometry>
        </mxCell>
        <mxCell id="kXMa__l_tiwJ-veJynp6-41" value="A qualidade&lt;div&gt;do produto é boa?&lt;/div&gt;" style="points=[[0.25,0.25,0],[0.5,0,0],[0.75,0.25,0],[1,0.5,0],[0.75,0.75,0],[0.5,1,0],[0.25,0.75,0],[0,0.5,0]];shape=mxgraph.bpmn.gateway2;html=1;verticalLabelPosition=bottom;labelBackgroundColor=#ffffff;verticalAlign=top;align=center;perimeter=rhombusPerimeter;outlineConnect=0;outline=none;symbol=none;gwType=exclusive;" vertex="1" parent="1">
          <mxGeometry x="1040" y="325" width="50" height="50" as="geometry" />
        </mxCell>
        <mxCell id="kXMa__l_tiwJ-veJynp6-42" style="edgeStyle=orthogonalEdgeStyle;rounded=0;orthogonalLoop=1;jettySize=auto;html=1;entryX=0;entryY=0.5;entryDx=0;entryDy=0;entryPerimeter=0;" edge="1" parent="1" source="kXMa__l_tiwJ-veJynp6-33" target="kXMa__l_tiwJ-veJynp6-41">
          <mxGeometry relative="1" as="geometry" />
        </mxCell>
        <mxCell id="kXMa__l_tiwJ-veJynp6-43" value="A qualidade&lt;div&gt;do serviço é boa?&lt;/div&gt;" style="points=[[0.25,0.25,0],[0.5,0,0],[0.75,0.25,0],[1,0.5,0],[0.75,0.75,0],[0.5,1,0],[0.25,0.75,0],[0,0.5,0]];shape=mxgraph.bpmn.gateway2;html=1;verticalLabelPosition=bottom;labelBackgroundColor=#ffffff;verticalAlign=top;align=center;perimeter=rhombusPerimeter;outlineConnect=0;outline=none;symbol=none;gwType=exclusive;" vertex="1" parent="1">
          <mxGeometry x="1040" y="440" width="50" height="50" as="geometry" />
        </mxCell>
        <mxCell id="kXMa__l_tiwJ-veJynp6-44" style="edgeStyle=orthogonalEdgeStyle;rounded=0;orthogonalLoop=1;jettySize=auto;html=1;entryX=0;entryY=0.5;entryDx=0;entryDy=0;entryPerimeter=0;" edge="1" parent="1" source="kXMa__l_tiwJ-veJynp6-34" target="kXMa__l_tiwJ-veJynp6-43">
          <mxGeometry relative="1" as="geometry" />
        </mxCell>
        <mxCell id="kXMa__l_tiwJ-veJynp6-45" value="A preço é caro&lt;div&gt;ou barato?&lt;/div&gt;" style="points=[[0.25,0.25,0],[0.5,0,0],[0.75,0.25,0],[1,0.5,0],[0.75,0.75,0],[0.5,1,0],[0.25,0.75,0],[0,0.5,0]];shape=mxgraph.bpmn.gateway2;html=1;verticalLabelPosition=bottom;labelBackgroundColor=#ffffff;verticalAlign=top;align=center;perimeter=rhombusPerimeter;outlineConnect=0;outline=none;symbol=none;gwType=exclusive;" vertex="1" parent="1">
          <mxGeometry x="1040" y="580" width="50" height="50" as="geometry" />
        </mxCell>
        <mxCell id="kXMa__l_tiwJ-veJynp6-46" style="edgeStyle=orthogonalEdgeStyle;rounded=0;orthogonalLoop=1;jettySize=auto;html=1;entryX=0;entryY=0.5;entryDx=0;entryDy=0;entryPerimeter=0;" edge="1" parent="1" source="kXMa__l_tiwJ-veJynp6-35" target="kXMa__l_tiwJ-veJynp6-45">
          <mxGeometry relative="1" as="geometry" />
        </mxCell>
        <mxCell id="kXMa__l_tiwJ-veJynp6-47" value="Guardar no banco com uma polaridade positiva" style="points=[[0.25,0,0],[0.5,0,0],[0.75,0,0],[1,0.25,0],[1,0.5,0],[1,0.75,0],[0.75,1,0],[0.5,1,0],[0.25,1,0],[0,0.75,0],[0,0.5,0],[0,0.25,0]];shape=mxgraph.bpmn.task;whiteSpace=wrap;rectStyle=rounded;size=10;html=1;container=1;expand=0;collapsible=0;taskMarker=abstract;" vertex="1" parent="1">
          <mxGeometry x="1150" y="310" width="120" height="80" as="geometry" />
        </mxCell>
        <mxCell id="kXMa__l_tiwJ-veJynp6-50" value="Guardar no banco com uma polaridade Negativa" style="points=[[0.25,0,0],[0.5,0,0],[0.75,0,0],[1,0.25,0],[1,0.5,0],[1,0.75,0],[0.75,1,0],[0.5,1,0],[0.25,1,0],[0,0.75,0],[0,0.5,0],[0,0.25,0]];shape=mxgraph.bpmn.task;whiteSpace=wrap;rectStyle=rounded;size=10;html=1;container=1;expand=0;collapsible=0;taskMarker=abstract;" vertex="1" parent="1">
          <mxGeometry x="1150" y="215" width="120" height="80" as="geometry" />
        </mxCell>
        <mxCell id="kXMa__l_tiwJ-veJynp6-51" style="edgeStyle=orthogonalEdgeStyle;rounded=0;orthogonalLoop=1;jettySize=auto;html=1;entryX=0;entryY=0.5;entryDx=0;entryDy=0;entryPerimeter=0;exitX=0.5;exitY=0;exitDx=0;exitDy=0;exitPerimeter=0;" edge="1" parent="1" source="kXMa__l_tiwJ-veJynp6-41" target="kXMa__l_tiwJ-veJynp6-50">
          <mxGeometry relative="1" as="geometry" />
        </mxCell>
        <mxCell id="kXMa__l_tiwJ-veJynp6-52" value="Realizar levantamento de 3 a 5 estrelas" style="points=[[0.25,0,0],[0.5,0,0],[0.75,0,0],[1,0.25,0],[1,0.5,0],[1,0.75,0],[0.75,1,0],[0.5,1,0],[0.25,1,0],[0,0.75,0],[0,0.5,0],[0,0.25,0]];shape=mxgraph.bpmn.task;whiteSpace=wrap;rectStyle=rounded;size=10;html=1;container=1;expand=0;collapsible=0;taskMarker=abstract;" vertex="1" parent="1">
          <mxGeometry x="1340" y="310" width="120" height="80" as="geometry" />
        </mxCell>
        <mxCell id="kXMa__l_tiwJ-veJynp6-53" style="edgeStyle=orthogonalEdgeStyle;rounded=0;orthogonalLoop=1;jettySize=auto;html=1;entryX=0;entryY=0.5;entryDx=0;entryDy=0;entryPerimeter=0;" edge="1" parent="1" source="kXMa__l_tiwJ-veJynp6-47" target="kXMa__l_tiwJ-veJynp6-52">
          <mxGeometry relative="1" as="geometry" />
        </mxCell>
        <mxCell id="kXMa__l_tiwJ-veJynp6-54" value="Realizar levantamento de 3 a 0 estrelas" style="points=[[0.25,0,0],[0.5,0,0],[0.75,0,0],[1,0.25,0],[1,0.5,0],[1,0.75,0],[0.75,1,0],[0.5,1,0],[0.25,1,0],[0,0.75,0],[0,0.5,0],[0,0.25,0]];shape=mxgraph.bpmn.task;whiteSpace=wrap;rectStyle=rounded;size=10;html=1;container=1;expand=0;collapsible=0;taskMarker=abstract;" vertex="1" parent="1">
          <mxGeometry x="1340" y="215" width="120" height="80" as="geometry" />
        </mxCell>
        <mxCell id="kXMa__l_tiwJ-veJynp6-55" style="edgeStyle=orthogonalEdgeStyle;rounded=0;orthogonalLoop=1;jettySize=auto;html=1;entryX=0;entryY=0.5;entryDx=0;entryDy=0;entryPerimeter=0;" edge="1" parent="1" source="kXMa__l_tiwJ-veJynp6-50" target="kXMa__l_tiwJ-veJynp6-54">
          <mxGeometry relative="1" as="geometry" />
        </mxCell>
        <mxCell id="kXMa__l_tiwJ-veJynp6-57" style="edgeStyle=orthogonalEdgeStyle;rounded=0;orthogonalLoop=1;jettySize=auto;html=1;entryX=0.5;entryY=0;entryDx=0;entryDy=0;entryPerimeter=0;" edge="1" parent="1" source="kXMa__l_tiwJ-veJynp6-54" target="kXMa__l_tiwJ-veJynp6-59">
          <mxGeometry relative="1" as="geometry">
            <mxPoint x="1560" y="430" as="targetPoint" />
          </mxGeometry>
        </mxCell>
        <mxCell id="kXMa__l_tiwJ-veJynp6-58" style="edgeStyle=orthogonalEdgeStyle;rounded=0;orthogonalLoop=1;jettySize=auto;html=1;entryX=0.5;entryY=0;entryDx=0;entryDy=0;entryPerimeter=0;" edge="1" parent="1" source="kXMa__l_tiwJ-veJynp6-52" target="kXMa__l_tiwJ-veJynp6-59">
          <mxGeometry relative="1" as="geometry">
            <mxPoint x="1560" y="430" as="targetPoint" />
          </mxGeometry>
        </mxCell>
        <mxCell id="kXMa__l_tiwJ-veJynp6-59" value="Armazenar as avaliações&lt;div&gt;calculadas no banco&lt;/div&gt;" style="points=[[0.145,0.145,0],[0.5,0,0],[0.855,0.145,0],[1,0.5,0],[0.855,0.855,0],[0.5,1,0],[0.145,0.855,0],[0,0.5,0]];shape=mxgraph.bpmn.event;html=1;verticalLabelPosition=bottom;labelBackgroundColor=#ffffff;verticalAlign=top;align=center;perimeter=ellipsePerimeter;outlineConnect=0;aspect=fixed;outline=end;symbol=terminate;" vertex="1" parent="1">
          <mxGeometry x="1540" y="450" width="50" height="50" as="geometry" />
        </mxCell>
      </root>
    </mxGraphModel>
  </diagram>
</mxfile>
